<svg width="64" height="533" viewBox="0 0 64 533" fill="none" xmlns="http://www.w3.org/2000/svg">
<path fill-rule="evenodd" clip-rule="evenodd" d="M25.9677 0L30.3963 12.8912C34.8249 25.2865 43.4808 50.573 39.0522 76.3553C34.8249 101.642 17.3118 126.928 15.2988 152.215C13.0845 177.501 25.9677 203.284 31.4028 228.57C36.8379 253.857 34.8249 279.143 28.182 304.43C21.7404 329.716 10.8702 355.499 13.0845 380.785C15.2988 406.072 30.3963 431.358 30.3963 456.645C30.3963 482.427 15.2988 507.713 7.64939 520.109L-1.05134e-06 533H64V520.109C64 507.713 64 482.427 64 456.645C64 431.358 64 406.072 64 380.785C64 355.499 64 329.716 64 304.43C64 279.143 64 253.857 64 228.57C64 203.284 64 152.215 64 152.215C64 152.215 64 101.642 64 76.3553C64 50.573 64 25.2865 64 12.8912V0L25.9677 0Z" fill="#FEE2E1"/>
</svg>
